<svg xmlns="http://www.w3.org/2000/svg" viewBox="0 0 429.32 675.37"><defs><style>.cls-1,.cls-2,.cls-4{fill:#d1cdcd;}.cls-1,.cls-2,.cls-3,.cls-4,.cls-5{stroke:#000;stroke-miterlimit:10;}.cls-1{stroke-width:3px;}.cls-2,.cls-3{stroke-width:1.67px;}.cls-3,.cls-5{fill:none;}.cls-6{font-size:37.44px;font-family:MyriadPro-Regular, Myriad Pro;}</style></defs><title>Asset 1</title><g id="Layer_2" data-name="Layer 2"><g id="Layer_1-2" data-name="Layer 1"><rect class="cls-1" x="1.5" y="1.5" width="426.32" height="672.37"/><circle class="cls-2" cx="212.67" cy="81.48" r="22.04"/><line class="cls-3" x1="191.26" y1="74.14" x2="234.09" y2="81.48"/><line class="cls-3" x1="191.25" y1="81.48" x2="234.1" y2="88.74"/><circle class="cls-2" cx="212.67" cy="561.48" r="22.04" transform="translate(-384.64 500.63) rotate(-63.44)"/><line class="cls-3" x1="196.53" y1="577.35" x2="222.25" y2="542.33"/><line class="cls-3" x1="203.09" y1="580.65" x2="228.75" y2="545.56"/><line class="cls-3" x1="1.5" y1="1.5" x2="14.6" y2="15.87"/><line class="cls-3" x1="427.82" y1="1.81" x2="414.07" y2="15.56"/><line class="cls-3" x1="13.93" y1="15.87" x2="414.69" y2="15.56"/><line class="cls-3" x1="427.82" y1="673.87" x2="414.71" y2="659.51"/><line class="cls-3" x1="1.5" y1="673.61" x2="15.25" y2="659.86"/><line class="cls-3" x1="415.38" y1="659.5" x2="14.62" y2="659.86"/><line class="cls-3" x1="13.93" y1="15.87" x2="14.62" y2="659.86"/><line class="cls-3" x1="414.69" y1="15.56" x2="414.71" y2="659.51"/><rect class="cls-4" x="168.1" y="213.96" width="88.85" height="207.84"/><line class="cls-5" x1="168.1" y1="277.58" x2="256.94" y2="277.22"/><line class="cls-5" x1="168.41" y1="355.04" x2="257.25" y2="354.69"/><text class="cls-6" transform="translate(184.94 259.9)">ON</text><text class="cls-6" transform="translate(184.94 401.9)">OFF</text></g></g></svg>